<?xml version="1.0" encoding="UTF-8" standalone="no"?>
<svg
   xmlns:dc="http://purl.org/dc/elements/1.1/"
   xmlns:cc="http://creativecommons.org/ns#"
   xmlns:rdf="http://www.w3.org/1999/02/22-rdf-syntax-ns#"
   xmlns:svg="http://www.w3.org/2000/svg"
   xmlns="http://www.w3.org/2000/svg"
   xmlns:sodipodi="http://sodipodi.sourceforge.net/DTD/sodipodi-0.dtd"
   xmlns:inkscape="http://www.inkscape.org/namespaces/inkscape"
   style="fill-opacity:1; color-rendering:auto; color-interpolation:auto; text-rendering:auto; stroke:black; stroke-linecap:square; stroke-miterlimit:10; shape-rendering:auto; stroke-opacity:1; fill:black; stroke-dasharray:none; font-weight:normal; stroke-width:1; font-family:'Dialog'; font-style:normal; stroke-linejoin:miter; font-size:12; stroke-dashoffset:0; image-rendering:auto;"
   width="1678.0"
   viewBox="0 0 1678.0 1018.0"
   height="1018.0"
   version="1.1"
   id="svg297"
   sodipodi:docname="RAxML_bipartitions.final.svg"
   inkscape:version="0.92.2 (5c3e80d, 2017-08-06)">
  <metadata
     id="metadata301">
    <rdf:RDF>
      <cc:Work
         rdf:about="">
        <dc:format>image/svg+xml</dc:format>
        <dc:type
           rdf:resource="http://purl.org/dc/dcmitype/StillImage" />
        <dc:title></dc:title>
      </cc:Work>
    </rdf:RDF>
  </metadata>
  <sodipodi:namedview
     pagecolor="#ffffff"
     bordercolor="#666666"
     borderopacity="1"
     objecttolerance="10"
     gridtolerance="10"
     guidetolerance="10"
     inkscape:pageopacity="0"
     inkscape:pageshadow="2"
     inkscape:window-width="1920"
     inkscape:window-height="1138"
     id="namedview299"
     showgrid="false"
     inkscape:zoom="0.74851013"
     inkscape:cx="999.62019"
     inkscape:cy="581.64476"
     inkscape:window-x="-8"
     inkscape:window-y="-8"
     inkscape:window-maximized="1"
     inkscape:current-layer="svg297" />
  <!--Generated by the Batik Graphics2D SVG Generator-->
  <defs
     id="genericDefs" />
  <g
     id="g295">
    <g
       transform="translate(6,6)"
       style="text-rendering:optimizeLegibility; font-size:10; font-family:sans-serif; stroke-linecap:round; stroke-linejoin:round;"
       id="g83">
      <line
         y2="987"
         style="fill:none;"
         x1="608.4889"
         x2="842.7126"
         y1="987"
         id="line3" />
      <text
         x="718.65"
         xml:space="preserve"
         y="1003"
         style="stroke:none;"
         id="text5">0.2</text>
      <path
         style="fill:none;"
         d="M1068.1409 166.8333 L710.8776 166.8333 L710.8776 206.1667"
         id="path7" />
      <path
         style="fill:none;"
         d="M776.9136 789.6111 L720.4063 789.6111 L720.4063 740.4445"
         id="path9" />
      <path
         style="fill:none;"
         d="M710.8776 206.1667 L639.3459 206.1667 L639.3459 147.1667"
         id="path11" />
      <path
         style="fill:none;"
         d="M917.4719 743.7222 L776.9136 743.7222 L776.9136 789.6111"
         id="path13" />
      <path
         style="fill:none;"
         d="M923.2422 848.6111 L921.1752 848.6111 L921.1752 874.8334"
         id="path15" />
      <path
         style="fill:none;"
         d="M720.4063 740.4445 L673.6162 740.4445 L673.6162 656.8611"
         id="path17" />
      <path
         style="fill:none;"
         d="M492.2549 295.8958 L69.6425 295.8958 L69.6425 624.6979"
         id="path19" />
      <path
         style="fill:none;"
         d="M876.5403 324.1667 L674.0216 324.1667 L674.0216 370.0556"
         id="path21" />
      <path
         style="fill:none;"
         d="M921.1752 874.8334 L909.4269 874.8334 L909.4269 835.5"
         id="path23" />
      <path
         style="fill:none;"
         d="M553.2787 78.3333 L492.2549 78.3333 L492.2549 295.8958"
         id="path25" />
      <path
         style="fill:none;"
         d="M916.4666 796.1666 L909.4269 796.1666 L909.4269 835.5"
         id="path27" />
      <path
         style="fill:none;"
         d="M795.132 455.2778 L738.9876 455.2778 L738.9876 415.9444"
         id="path29" />
      <path
         style="fill:none;"
         d="M673.6162 656.8611 L590.6907 656.8611 L590.6907 513.4584"
         id="path31" />
      <path
         style="fill:none;"
         d="M932.8995 9.5 L553.2787 9.5 L553.2787 78.3333"
         id="path33" />
      <path
         style="fill:none;"
         d="M935.5862 114.3889 L877.6939 114.3889 L877.6939 88.1667"
         id="path35" />
      <path
         style="fill:none;"
         d="M747.4261 573.2778 L673.6162 573.2778 L673.6162 656.8611"
         id="path37" />
      <path
         style="fill:none;"
         d="M921.9949 901.0555 L921.1752 901.0555 L921.1752 874.8334"
         id="path39" />
      <path
         style="fill:none;"
         d="M896.1774 691.2778 L720.4063 691.2778 L720.4063 740.4445"
         id="path41" />
      <path
         style="fill:none;"
         d="M1424.0333 533.9445 L747.4261 533.9445 L747.4261 573.2778"
         id="path43" />
      <path
         style="fill:none;"
         d="M874.5449 612.6111 L747.4261 612.6111 L747.4261 573.2778"
         id="path45" />
      <path
         style="fill:none;"
         d="M1063.1704 219.2778 L770.7394 219.2778 L770.7394 245.5"
         id="path47" />
      <path
         style="fill:none;"
         d="M877.6939 88.1667 L639.3459 88.1667 L639.3459 147.1667"
         id="path49" />
      <path
         style="fill:none;"
         d="M492.2549 953.5 L69.6425 953.5 L69.6425 624.6979"
         id="path51" />
      <path
         style="fill:none;"
         d="M909.4269 835.5 L776.9136 835.5 L776.9136 789.6111"
         id="path53" />
      <path
         style="fill:none;"
         d="M1298.3547 586.3889 L874.5449 586.3889 L874.5449 612.6111"
         id="path55" />
      <path
         style="fill:none;"
         d="M639.3459 147.1667 L553.2787 147.1667 L553.2787 78.3333"
         id="path57" />
      <path
         style="fill:none;"
         d="M1103.4905 271.7222 L770.7394 271.7222 L770.7394 245.5"
         id="path59" />
      <path
         style="fill:none;"
         d="M738.9876 415.9444 L674.0216 415.9444 L674.0216 370.0556"
         id="path61" />
      <path
         style="fill:none;"
         d="M2.7713 624.6979 L69.6425 624.6979"
         id="path63" />
      <path
         style="fill:none;"
         d="M1062.6703 638.8334 L874.5449 638.8334 L874.5449 612.6111"
         id="path65" />
      <path
         style="fill:none;"
         d="M770.7394 245.5 L710.8776 245.5 L710.8776 206.1667"
         id="path67" />
      <path
         style="fill:none;"
         d="M590.6907 513.4584 L492.2549 513.4584 L492.2549 295.8958"
         id="path69" />
      <path
         style="fill:none;"
         d="M1448.4301 429.0556 L795.132 429.0556 L795.132 455.2778"
         id="path71" />
      <path
         style="fill:none;"
         d="M674.0216 370.0556 L590.6907 370.0556 L590.6907 513.4584"
         id="path73" />
      <path
         style="fill:none;"
         d="M928.3522 481.5 L795.132 481.5 L795.132 455.2778"
         id="path75" />
      <path
         style="fill:none;"
         d="M914.6097 376.6111 L738.9876 376.6111 L738.9876 415.9444"
         id="path77" />
      <path
         style="fill:none;"
         d="M944.7665 61.9444 L877.6939 61.9444 L877.6939 88.1667"
         id="path79" />
      <path
         style="stroke:none;"
         d="M747.4261 570.4493 L750.2546 573.2778 L747.4261 576.1062 L744.5977 573.2778 L747.4261 570.4493 Z"
         id="path81" />
    </g>
    <g
       style="stroke-width:0.5; text-rendering:optimizeLegibility;"
       transform="translate(6,6)"
       id="g157">
      <path
         style="fill:none;"
         d="M747.4261 570.4493 L750.2546 573.2778 L747.4261 576.1062 L744.5977 573.2778 L747.4261 570.4493 Z"
         id="path85" />
      <path
         style="stroke:none;"
         d="M776.9136 786.7827 L779.742 789.6111 L776.9136 792.4395 L774.0851 789.6111 L776.9136 786.7827 Z"
         id="path87" />
      <path
         style="fill:none;"
         d="M776.9136 786.7827 L779.742 789.6111 L776.9136 792.4395 L774.0851 789.6111 L776.9136 786.7827 Z"
         id="path89" />
      <path
         style="stroke:none;"
         d="M710.8776 203.3382 L713.706 206.1667 L710.8776 208.9951 L708.0491 206.1667 L710.8776 203.3382 Z"
         id="path91" />
      <path
         style="fill:none;"
         d="M710.8776 203.3382 L713.706 206.1667 L710.8776 208.9951 L708.0491 206.1667 L710.8776 203.3382 Z"
         id="path93" />
      <path
         style="stroke:none;"
         d="M874.5449 609.7827 L877.3733 612.6111 L874.5449 615.4395 L871.7164 612.6111 L874.5449 609.7827 Z"
         id="path95" />
      <path
         style="fill:none;"
         d="M874.5449 609.7827 L877.3733 612.6111 L874.5449 615.4395 L871.7164 612.6111 L874.5449 609.7827 Z"
         id="path97" />
      <path
         style="stroke:none;"
         d="M720.4063 737.616 L723.2347 740.4445 L720.4063 743.2729 L717.5779 740.4445 L720.4063 737.616 Z"
         id="path99" />
      <path
         style="fill:none;"
         d="M720.4063 737.616 L723.2347 740.4445 L720.4063 743.2729 L717.5779 740.4445 L720.4063 737.616 Z"
         id="path101" />
      <path
         style="stroke:none;"
         d="M877.6939 85.3382 L880.5223 88.1667 L877.6939 90.9951 L874.8655 88.1667 L877.6939 85.3382 Z"
         id="path103" />
      <path
         style="fill:none;"
         d="M877.6939 85.3382 L880.5223 88.1667 L877.6939 90.9951 L874.8655 88.1667 L877.6939 85.3382 Z"
         id="path105" />
      <path
         style="stroke:none;"
         d="M492.2549 293.0674 L495.0833 295.8958 L492.2549 298.7243 L489.4265 295.8958 L492.2549 293.0674 Z"
         id="path107" />
      <path
         style="fill:none;"
         d="M492.2549 293.0674 L495.0833 295.8958 L492.2549 298.7243 L489.4265 295.8958 L492.2549 293.0674 Z"
         id="path109" />
      <path
         style="stroke:none;"
         d="M909.4269 832.6716 L912.2554 835.5 L909.4269 838.3284 L906.5985 835.5 L909.4269 832.6716 Z"
         id="path111" />
      <path
         style="fill:none;"
         d="M909.4269 832.6716 L912.2554 835.5 L909.4269 838.3284 L906.5985 835.5 L909.4269 832.6716 Z"
         id="path113" />
      <path
         style="stroke:none;"
         d="M639.3458 144.3382 L642.1743 147.1667 L639.3458 149.9951 L636.5174 147.1667 L639.3458 144.3382 Z"
         id="path115" />
      <path
         style="fill:none;"
         d="M639.3458 144.3382 L642.1743 147.1667 L639.3458 149.9951 L636.5174 147.1667 L639.3458 144.3382 Z"
         id="path117" />
      <path
         style="stroke:none;"
         d="M553.2786 75.5049 L556.1071 78.3333 L553.2786 81.1618 L550.4503 78.3333 L553.2786 75.5049 Z"
         id="path119" />
      <path
         style="fill:none;"
         d="M553.2786 75.5049 L556.1071 78.3333 L553.2786 81.1618 L550.4503 78.3333 L553.2786 75.5049 Z"
         id="path121" />
      <path
         style="stroke:none;"
         d="M921.1752 872.0049 L924.0036 874.8333 L921.1752 877.6617 L918.3467 874.8333 L921.1752 872.0049 Z"
         id="path123" />
      <path
         style="fill:none;"
         d="M921.1752 872.0049 L924.0036 874.8333 L921.1752 877.6617 L918.3467 874.8333 L921.1752 872.0049 Z"
         id="path125" />
      <path
         style="stroke:none;"
         d="M738.9876 413.116 L741.816 415.9445 L738.9876 418.7729 L736.1592 415.9445 L738.9876 413.116 Z"
         id="path127" />
      <path
         style="fill:none;"
         d="M738.9876 413.116 L741.816 415.9445 L738.9876 418.7729 L736.1592 415.9445 L738.9876 413.116 Z"
         id="path129" />
      <path
         style="stroke:none;"
         d="M69.6425 621.8695 L72.4709 624.6979 L69.6425 627.5264 L66.8141 624.6979 L69.6425 621.8695 Z"
         id="path131" />
      <path
         style="fill:none;"
         d="M69.6425 621.8695 L72.4709 624.6979 L69.6425 627.5264 L66.8141 624.6979 L69.6425 621.8695 Z"
         id="path133" />
      <path
         style="stroke:none;"
         d="M795.132 452.4493 L797.9604 455.2778 L795.132 458.1062 L792.3035 455.2778 L795.132 452.4493 Z"
         id="path135" />
      <path
         style="fill:none;"
         d="M795.132 452.4493 L797.9604 455.2778 L795.132 458.1062 L792.3035 455.2778 L795.132 452.4493 Z"
         id="path137" />
      <path
         style="stroke:none;"
         d="M673.6161 654.0327 L676.4446 656.8611 L673.6161 659.6895 L670.7877 656.8611 L673.6161 654.0327 Z"
         id="path139" />
      <path
         style="fill:none;"
         d="M673.6161 654.0327 L676.4446 656.8611 L673.6161 659.6895 L670.7877 656.8611 L673.6161 654.0327 Z"
         id="path141" />
      <path
         style="stroke:none;"
         d="M770.7394 242.6716 L773.5679 245.5 L770.7394 248.3284 L767.911 245.5 L770.7394 242.6716 Z"
         id="path143" />
      <path
         style="fill:none;"
         d="M770.7394 242.6716 L773.5679 245.5 L770.7394 248.3284 L767.911 245.5 L770.7394 242.6716 Z"
         id="path145" />
      <path
         style="stroke:none;"
         d="M590.6907 510.6299 L593.5192 513.4583 L590.6907 516.2867 L587.8623 513.4583 L590.6907 510.6299 Z"
         id="path147" />
      <path
         style="fill:none;"
         d="M590.6907 510.6299 L593.5192 513.4583 L590.6907 516.2867 L587.8623 513.4583 L590.6907 510.6299 Z"
         id="path149" />
      <path
         style="stroke:none;"
         d="M674.0217 367.2271 L676.8501 370.0555 L674.0217 372.884 L671.1932 370.0555 L674.0217 367.2271 Z"
         id="path151" />
      <path
         style="fill:none;"
         d="M674.0217 367.2271 L676.8501 370.0555 L674.0217 372.884 L671.1932 370.0555 L674.0217 367.2271 Z"
         id="path153" />
      <text
         x="0"
         y="15"
         transform="translate(945.5862,104.8889)"
         style="font-style:italic;font-size:16px;font-family:'Times New Roman';stroke:none"
         xml:space="preserve"
         id="text155">Thermoanaerobacter brockii</text>
    </g>
    <g
       transform="matrix(1,0,0,1,1084.1409,163.3333)"
       style="font-style:italic; text-rendering:optimizeLegibility; stroke-width:0.5; font-size:16; font-family:'Times New Roman';"
       id="g161">
      <text
         x="0"
         xml:space="preserve"
         y="15"
         style="stroke:none"
         id="text159">Clostridium botulinum</text>
    </g>
    <g
       transform="matrix(1,0,0,1,937.9949,897.5556)"
       style="font-style:italic; text-rendering:optimizeLegibility; stroke-width:0.5; font-size:16; font-family:'Times New Roman';"
       id="g165">
      <text
         x="0"
         xml:space="preserve"
         y="15"
         style="stroke:none"
         id="text163">Bacillus thuringiensis</text>
    </g>
    <g
       transform="matrix(1,0,0,1,912.1773,687.7778)"
       style="font-style:italic; text-rendering:optimizeLegibility; stroke-width:0.5; font-size:16; font-family:'Times New Roman';"
       id="g169">
      <text
         x="0"
         xml:space="preserve"
         y="15"
         style="stroke:none"
         id="text167">Bacillus halodurans</text>
    </g>
    <g
       transform="matrix(1,0,0,1,1440.0332,530.4444)"
       style="font-style:italic; text-rendering:optimizeLegibility; stroke-width:0.5; font-size:16; font-family:'Times New Roman';"
       id="g173">
      <text
         x="0"
         xml:space="preserve"
         y="15"
         style="stroke:none"
         id="text171">Dubosiella newyorkensis</text>
    </g>
    <g
       transform="matrix(1,0,0,1,933.4719,740.2222)"
       style="font-style:italic; text-rendering:optimizeLegibility; stroke-width:0.5; font-size:16; font-family:'Times New Roman';"
       id="g177">
      <text
         x="0"
         xml:space="preserve"
         y="15"
         style="stroke:none"
         id="text175">Bacillus subtilis</text>
    </g>
    <g
       transform="matrix(1,0,0,1,939.2422,845.1111)"
       style="font-style:italic; text-rendering:optimizeLegibility; stroke-width:0.5; font-size:16; font-family:'Times New Roman';"
       id="g181">
      <text
         x="0"
         xml:space="preserve"
         y="15"
         style="stroke:none"
         id="text179">Bacillus anthracis</text>
    </g>
    <g
       transform="matrix(1,0,0,1,1079.1704,215.7778)"
       style="font-style:italic; text-rendering:optimizeLegibility; stroke-width:0.5; font-size:16; font-family:'Times New Roman';"
       id="g185">
      <text
         x="0"
         xml:space="preserve"
         y="15"
         style="stroke:none"
         id="text183">Sporanaerobacter acetigenes</text>
    </g>
    <g
       transform="matrix(1,0,0,1,508.2549,950)"
       style="font-style:italic; text-rendering:optimizeLegibility; stroke-width:0.5; font-size:16; font-family:'Times New Roman';"
       id="g189">
      <text
         x="0"
         xml:space="preserve"
         y="15"
         style="stroke:none"
         id="text187">Escherichia coli</text>
    </g>
    <g
       transform="matrix(1,0,0,1,1314.3548,582.8889)"
       style="font-style:italic; text-rendering:optimizeLegibility; stroke-width:0.5; font-size:16; font-family:'Times New Roman';"
       id="g193">
      <text
         x="0"
         xml:space="preserve"
         y="15"
         style="stroke:none"
         id="text191">Lactobacillus acidophilus</text>
    </g>
    <g
       transform="matrix(1,0,0,1,892.5403,320.6667)"
       style="font-style:italic; text-rendering:optimizeLegibility; stroke-width:0.5; font-size:16; font-family:'Times New Roman';"
       id="g197">
      <text
         x="0"
         xml:space="preserve"
         y="15"
         style="stroke:none"
         id="text195">Novibacillus thermophilus</text>
    </g>
    <g
       transform="matrix(1,0,0,1,1119.4905,268.2222)"
       style="font-style:italic; text-rendering:optimizeLegibility; stroke-width:0.5; font-size:16; font-family:'Times New Roman';"
       id="g201">
      <text
         x="0"
         xml:space="preserve"
         y="15"
         style="stroke:none"
         id="text199">Clostidioides difficile</text>
    </g>
    <g
       transform="matrix(1,0,0,1,932.4665,792.6667)"
       style="font-style:italic; text-rendering:optimizeLegibility; stroke-width:0.5; font-size:16; font-family:'Times New Roman';"
       id="g205">
      <text
         x="0"
         xml:space="preserve"
         y="15"
         style="stroke:none"
         id="text203">Bacillus cereus</text>
    </g>
    <g
       transform="matrix(1,0,0,1,1078.6703,635.3333)"
       style="font-style:italic; text-rendering:optimizeLegibility; stroke-width:0.5; font-size:16; font-family:'Times New Roman';"
       id="g209">
      <text
         x="0"
         xml:space="preserve"
         y="15"
         style="stroke:none"
         id="text207">Enterococcus faecialis</text>
    </g>
    <g
       transform="matrix(1,0,0,1,1464.4301,425.5556)"
       style="font-style:italic; text-rendering:optimizeLegibility; stroke-width:0.5; font-size:16; font-family:'Times New Roman';"
       id="g213">
      <text
         x="0"
         xml:space="preserve"
         y="15"
         style="stroke:none"
         id="text211">Pasteuria penetrans</text>
    </g>
    <g
       transform="matrix(1,0,0,1,948.8995,6)"
       style="font-style:italic; text-rendering:optimizeLegibility; stroke-width:0.5; font-size:16; font-family:'Times New Roman';"
       id="g217">
      <text
         x="0"
         xml:space="preserve"
         y="15"
         style="stroke:none"
         id="text215">Pelosinus spp. strain UFO1</text>
    </g>
    <g
       transform="matrix(1,0,0,1,930.6097,373.1111)"
       style="font-style:italic; text-rendering:optimizeLegibility; stroke-width:0.5; font-size:16; font-family:'Times New Roman';"
       id="g221">
      <text
         x="0"
         xml:space="preserve"
         y="15"
         style="stroke:none"
         id="text219">Kropenstedtia eburnea</text>
    </g>
    <g
       transform="matrix(1,0,0,1,944.3522,478)"
       style="font-style:italic; text-rendering:optimizeLegibility; stroke-width:0.5; font-size:16; font-family:'Times New Roman';"
       id="g225">
      <text
         x="0"
         xml:space="preserve"
         y="15"
         style="stroke:none"
         id="text223">Thermoactinomyces vulgaris</text>
    </g>
    <g
       transform="matrix(1,0,0,1,960.7666,58.4444)"
       style="font-style:italic; text-rendering:optimizeLegibility; stroke-width:0.5; font-size:16; font-family:'Times New Roman';"
       id="g229">
      <text
         x="0"
         xml:space="preserve"
         y="15"
         style="stroke:none"
         id="text227">Caldanaerobacter subterraneus</text>
    </g>
    <g
       style="text-rendering:optimizeLegibility; stroke-width:0.5; font-size:8; font-family:sans-serif;"
       transform="matrix(1,0,0,1,763.4262,574.2778)"
       id="g233">
      <text
         x="0"
         xml:space="preserve"
         y="8"
         style="stroke:none;"
         id="text231">100</text>
    </g>
    <g
       style="text-rendering:optimizeLegibility; stroke-width:0.5; font-size:8; font-family:sans-serif;"
       transform="matrix(1,0,0,1,792.9136,790.6111)"
       id="g237">
      <text
         x="0"
         xml:space="preserve"
         y="8"
         style="stroke:none;"
         id="text235">100</text>
    </g>
    <g
       style="text-rendering:optimizeLegibility; stroke-width:0.5; font-size:8; font-family:sans-serif;"
       transform="matrix(1,0,0,1,726.8776,207.1667)"
       id="g241">
      <text
         x="0"
         xml:space="preserve"
         y="8"
         style="stroke:none;"
         id="text239">100</text>
    </g>
    <g
       style="text-rendering:optimizeLegibility; stroke-width:0.5; font-size:8; font-family:sans-serif;"
       transform="matrix(1,0,0,1,890.5449,613.6111)"
       id="g245">
      <text
         x="0"
         xml:space="preserve"
         y="8"
         style="stroke:none;"
         id="text243">100</text>
    </g>
    <g
       style="text-rendering:optimizeLegibility; stroke-width:0.5; font-size:8; font-family:sans-serif;"
       transform="matrix(1,0,0,1,736.4063,741.4444)"
       id="g249">
      <text
         x="0"
         xml:space="preserve"
         y="8"
         style="stroke:none;"
         id="text247">64</text>
    </g>
    <g
       style="text-rendering:optimizeLegibility; stroke-width:0.5; font-size:8; font-family:sans-serif;"
       transform="matrix(1,0,0,1,893.6939,89.1667)"
       id="g253">
      <text
         x="0"
         xml:space="preserve"
         y="8"
         style="stroke:none;"
         id="text251">100</text>
    </g>
    <g
       style="text-rendering:optimizeLegibility; stroke-width:0.5; font-size:8; font-family:sans-serif;"
       transform="matrix(1,0,0,1,925.4269,836.5)"
       id="g257">
      <text
         x="0"
         xml:space="preserve"
         y="8"
         style="stroke:none;"
         id="text255">100</text>
    </g>
    <g
       style="text-rendering:optimizeLegibility; stroke-width:0.5; font-size:8; font-family:sans-serif;"
       transform="matrix(1,0,0,1,655.3458,148.1667)"
       id="g261">
      <text
         x="0"
         xml:space="preserve"
         y="8"
         style="stroke:none;"
         id="text259">100</text>
    </g>
    <g
       style="text-rendering:optimizeLegibility; stroke-width:0.5; font-size:8; font-family:sans-serif;"
       transform="matrix(1,0,0,1,569.2787,79.3333)"
       id="g265">
      <text
         x="0"
         xml:space="preserve"
         y="8"
         style="stroke:none;"
         id="text263">100</text>
    </g>
    <g
       style="text-rendering:optimizeLegibility; stroke-width:0.5; font-size:8; font-family:sans-serif;"
       transform="matrix(1,0,0,1,937.1752,875.8333)"
       id="g269">
      <text
         x="0"
         xml:space="preserve"
         y="8"
         style="stroke:none;"
         id="text267">100</text>
    </g>
    <g
       style="text-rendering:optimizeLegibility; stroke-width:0.5; font-size:8; font-family:sans-serif;"
       transform="matrix(1,0,0,1,754.9876,416.9444)"
       id="g273">
      <text
         x="0"
         xml:space="preserve"
         y="8"
         style="stroke:none;"
         id="text271">100</text>
    </g>
    <g
       style="text-rendering:optimizeLegibility; stroke-width:0.5; font-size:8; font-family:sans-serif;"
       transform="matrix(1,0,0,1,811.132,456.2778)"
       id="g277">
      <text
         x="0"
         xml:space="preserve"
         y="8"
         style="stroke:none;"
         id="text275">100</text>
    </g>
    <g
       style="text-rendering:optimizeLegibility; stroke-width:0.5; font-size:8; font-family:sans-serif;"
       transform="matrix(1,0,0,1,689.6162,657.8611)"
       id="g281">
      <text
         x="0"
         xml:space="preserve"
         y="8"
         style="stroke:none;"
         id="text279">100</text>
    </g>
    <g
       style="text-rendering:optimizeLegibility; stroke-width:0.5; font-size:8; font-family:sans-serif;"
       transform="matrix(1,0,0,1,786.7394,246.5)"
       id="g285">
      <text
         x="0"
         xml:space="preserve"
         y="8"
         style="stroke:none;"
         id="text283">100</text>
    </g>
    <g
       style="text-rendering:optimizeLegibility; stroke-width:0.5; font-size:8; font-family:sans-serif;"
       transform="matrix(1,0,0,1,606.6907,514.4583)"
       id="g289">
      <text
         x="0"
         xml:space="preserve"
         y="8"
         style="stroke:none;"
         id="text287">100</text>
    </g>
    <g
       style="text-rendering:optimizeLegibility; stroke-width:0.5; font-size:8; font-family:sans-serif;"
       transform="matrix(1,0,0,1,690.0216,371.0556)"
       id="g293">
      <text
         x="0"
         xml:space="preserve"
         y="8"
         style="stroke:none;"
         id="text291">100</text>
    </g>
  </g>
</svg>
